<?xml version="1.0" standalone="no"?>
<!DOCTYPE svg PUBLIC "-//W3C//DTD SVG 20010904//EN"
 "http://www.w3.org/TR/2001/REC-SVG-20010904/DTD/svg10.dtd">
<svg version="1.0" xmlns="http://www.w3.org/2000/svg"
 width="1200.000000pt" height="1200.000000pt" viewBox="0 0 1200.000000 1200.000000"
 preserveAspectRatio="xMidYMid meet">

<g transform="translate(0.000000,1200.000000) scale(0.100000,-0.100000)"
fill="#000000" stroke="none">
<path d="M5935 11018 c-524 -59 -1117 -327 -1738 -786 -84 -62 -133 -92 -143
-88 -15 6 -15 4 0 -18 9 -14 16 -39 16 -56 0 -40 -34 -105 -65 -126 -51 -33
-133 -13 -156 39 l-10 22 5 -22 c3 -18 -19 -42 -122 -130 -404 -346 -908 -841
-1206 -1183 -59 -69 -125 -144 -146 -168 l-37 -43 26 -14 c34 -17 51 -54 51
-111 0 -85 -50 -144 -129 -152 -47 -4 -53 -2 -85 30 -22 22 -34 29 -34 19 1
-9 -14 -41 -34 -71 -138 -214 -207 -438 -186 -608 27 -233 275 -454 695 -621
98 -39 376 -131 395 -131 6 0 34 -24 63 -54 70 -73 138 -87 191 -38 20 19 23
19 237 -19 217 -39 485 -73 670 -85 53 -4 97 -10 97 -13 0 -20 -31 -363 -35
-397 l-6 -42 -117 2 c-112 1 -120 0 -182 -30 -113 -54 -197 -163 -205 -266
l-3 -42 -48 -3 c-117 -9 -215 -62 -331 -180 -73 -75 -74 -76 -95 -57 -12 11
-6 0 12 -24 47 -59 47 -113 1 -154 -18 -16 -43 -28 -59 -28 -35 0 -98 42 -117
80 -17 33 -20 76 -5 85 33 21 -26 51 -245 125 -325 111 -751 176 -914 141
-115 -25 -243 -88 -381 -190 -75 -54 -310 -277 -310 -293 0 -4 6 -8 14 -8 27
0 66 -59 66 -98 0 -43 -39 -107 -71 -117 -52 -17 -115 17 -138 75 l-10 25 0
-24 c-1 -13 -21 -51 -45 -85 -53 -75 -159 -257 -181 -313 -9 -23 -24 -44 -33
-46 -10 -3 2 -5 26 -6 113 -3 142 -144 41 -197 -38 -19 -76 -12 -112 22 -25
23 -40 21 -17 -2 7 -7 7 -28 0 -63 -14 -74 -13 -117 5 -186 29 -110 80 -151
233 -182 117 -24 456 -21 629 6 178 28 164 32 158 -36 -3 -32 -7 -114 -11
-183 l-6 -126 -79 -12 c-255 -41 -425 -147 -511 -322 -75 -151 -87 -296 -33
-405 15 -31 25 -58 24 -59 -2 -2 -42 -11 -89 -21 -102 -20 -174 -57 -207 -106
-47 -71 -43 -151 12 -224 19 -24 32 -51 29 -59 -3 -7 -26 -16 -53 -20 -26 -3
-67 -16 -92 -29 -75 -37 -62 -92 27 -117 l46 -13 -31 -24 c-24 -19 -31 -32
-31 -58 0 -19 -9 -57 -20 -85 -53 -135 4 -261 152 -336 37 -19 69 -42 73 -53
11 -35 87 -63 170 -63 87 0 88 -2 54 -93 -23 -62 -19 -87 15 -103 68 -31 156
-35 744 -36 325 0 592 -1 592 -2 0 -1 -11 -22 -25 -45 -19 -34 -25 -58 -25
-105 0 -34 -7 -80 -15 -103 -14 -41 -14 -43 8 -65 33 -33 116 -45 384 -56 126
-5 316 -15 423 -21 196 -12 414 -8 610 11 58 5 215 14 350 20 299 11 398 29
413 74 20 59 -26 380 -77 542 -13 40 -22 74 -21 76 2 2 66 0 142 -4 807 -40
1568 -36 2413 12 342 20 944 65 1009 76 30 5 33 3 27 -13 -4 -10 -12 -43 -18
-73 -12 -64 -18 -77 -69 -145 -65 -87 -73 -116 -72 -248 0 -95 3 -121 17 -136
28 -31 137 -41 526 -51 201 -5 606 -14 900 -22 294 -7 562 -13 595 -13 l60 0
20 40 c55 113 9 344 -96 476 -33 41 -121 99 -151 99 -30 0 -58 37 -58 74 0 30
-23 116 -45 170 -8 18 6 18 441 15 392 -3 449 -2 446 11 -2 8 -16 50 -33 92
-36 95 -36 102 -2 117 62 28 214 135 256 180 55 59 70 107 61 194 l-6 64 36 7
c44 8 76 37 76 68 0 12 -19 44 -42 72 -23 27 -38 51 -33 53 46 16 60 31 63 64
4 47 -28 92 -101 142 l-58 39 44 47 c58 62 71 104 64 205 -9 145 -92 348 -192
470 -55 67 -145 132 -262 188 -69 33 -103 55 -103 66 0 19 80 415 85 420 1 2
40 -4 86 -12 134 -24 202 -28 305 -21 88 7 99 10 132 39 43 38 62 81 62 143 0
52 -37 277 -71 426 -45 205 -48 222 -39 231 6 6 10 32 10 59 0 44 -4 54 -39
89 -28 28 -48 62 -69 121 -17 45 -47 120 -67 167 -37 82 -37 85 -21 113 20 36
21 87 1 113 -17 23 -19 14 -4 -20 24 -52 -25 -126 -83 -126 -38 0 -88 48 -88
85 0 30 16 65 38 81 12 8 4 20 -44 62 -32 29 -80 63 -106 76 -27 13 -56 33
-66 43 -9 10 -14 14 -9 9 12 -17 8 -91 -8 -112 -23 -34 -69 -49 -105 -34 -53
22 -68 72 -45 145 4 12 0 10 -9 -6 -11 -19 -37 -34 -93 -54 -151 -53 -301
-143 -424 -252 l-65 -59 38 -16 c53 -23 76 -75 56 -127 -15 -40 -68 -81 -104
-81 -90 0 -132 94 -79 176 l26 39 -26 -28 c-13 -15 -27 -40 -30 -55 -3 -15
-11 -37 -18 -49 -11 -20 -126 -176 -210 -284 l-37 -49 -53 62 c-117 138 -206
172 -510 194 l-78 6 21 33 c43 69 20 100 -70 93 -53 -4 -60 -2 -60 14 0 35
-43 103 -101 160 -67 66 -173 121 -263 137 -69 13 -272 14 -333 2 l-42 -8 -6
51 c-12 96 -32 321 -29 325 2 2 74 10 161 17 495 43 905 106 1278 199 346 85
580 178 708 280 69 55 130 145 147 216 17 69 7 245 -18 329 -99 333 -363 761
-817 1324 -168 207 -167 206 -161 241 4 20 -2 47 -18 81 -23 49 -70 104 -90
104 -5 0 3 -9 18 -21 36 -28 76 -110 76 -155 0 -48 -53 -104 -99 -104 -60 0
-122 49 -150 119 -23 54 2 119 56 149 20 12 -35 75 -369 423 -151 158 -198
213 -198 232 0 33 -42 83 -92 108 -22 11 -42 19 -44 16 -2 -2 14 -12 37 -22
49 -22 89 -68 89 -101 0 -92 -97 -152 -179 -109 -83 42 -108 139 -52 196 16
16 39 29 50 29 12 0 21 3 20 8 -1 9 -256 229 -394 338 -133 105 -275 204 -394
275 -85 50 -89 54 -94 92 -3 22 -15 49 -27 61 -21 21 -21 21 1 -19 27 -50 21
-85 -22 -127 -27 -28 -35 -30 -82 -26 -67 6 -124 33 -142 69 -20 38 -19 57 6
103 11 21 16 35 10 32 -5 -4 -61 11 -124 33 -138 48 -300 85 -460 106 -128 16
-390 18 -522 3z m-175 -369 c132 -35 195 -73 300 -179 149 -148 198 -273 187
-475 -9 -154 -53 -269 -160 -410 -45 -60 -57 -71 -90 -76 -69 -11 -117 -62
-117 -125 0 -26 -12 -43 -63 -90 -161 -151 -339 -275 -512 -359 -160 -78 -152
-77 -161 -8 -6 53 -11 63 -60 112 l-53 54 -57 -5 c-51 -4 -61 -9 -95 -45 -62
-67 -62 -116 -1 -235 2 -5 -54 -8 -125 -8 -251 1 -415 62 -564 210 -139 138
-189 258 -189 450 0 123 15 191 64 288 94 187 234 315 641 584 348 231 513
307 737 338 88 12 229 3 318 -21z m600 -18 c56 -55 52 -131 -10 -193 -30 -30
-45 -38 -74 -38 -75 0 -126 54 -126 135 0 76 53 124 138 125 35 0 49 -6 72
-29z m1353 -1089 c64 -60 81 -153 35 -198 -28 -28 -75 -34 -113 -14 -26 14
-85 116 -85 148 0 59 57 108 110 96 14 -3 38 -17 53 -32z m-763 -51 c39 -39
45 -69 26 -135 -22 -75 -88 -146 -135 -146 -36 0 -70 15 -88 39 -19 25 -15 93
7 121 11 14 20 38 20 54 0 18 11 39 34 62 45 45 95 47 136 5z m-874 -6 c45
-19 78 -87 68 -141 -9 -48 -47 -91 -94 -105 -33 -10 -44 -9 -83 10 -56 27 -82
74 -74 138 5 49 27 79 72 99 39 17 68 17 111 -1z m-2165 -218 c51 -34 65 -66
51 -114 -19 -63 -53 -106 -104 -131 -56 -28 -94 -24 -132 15 -50 50 -27 167
44 227 40 33 94 35 141 3z m-246 -93 c17 -4 20 -12 17 -44 -5 -54 22 -104 77
-140 38 -26 54 -31 91 -27 25 2 52 7 61 11 24 11 51 -62 56 -154 6 -94 -13
-166 -67 -249 -43 -66 -91 -105 -187 -153 -112 -55 -291 -49 -330 11 -10 16
-38 45 -61 65 -36 29 -52 36 -88 36 -41 0 -45 2 -64 40 -26 51 -40 161 -29
229 26 163 168 322 328 367 48 13 161 18 196 8z m1372 -114 c42 -25 51 -45 59
-128 7 -69 6 -72 -23 -101 -42 -41 -91 -49 -146 -22 -59 28 -81 71 -75 140 5
55 23 81 73 112 38 24 72 24 112 -1z m3424 -249 c24 -24 29 -38 29 -76 0 -127
-110 -166 -178 -62 -35 53 -34 98 3 137 41 42 104 43 146 1z m-2670 -254 c19
-12 42 -38 51 -57 66 -132 -76 -276 -193 -197 -43 29 -63 70 -62 128 2 119
112 188 204 126z m-2524 -47 c8 0 28 -14 44 -31 24 -25 29 -40 29 -79 0 -41
-5 -54 -33 -83 -58 -62 -142 -60 -184 3 -36 52 -26 117 25 163 23 21 71 37 90
31 8 -2 20 -4 29 -4z m4150 -186 c39 -25 63 -74 63 -127 0 -63 -23 -105 -67
-124 -32 -13 -40 -13 -78 2 -52 19 -96 80 -102 139 -10 101 99 166 184 110z
m2149 -88 c11 -8 35 -36 53 -62 42 -64 43 -120 2 -166 -26 -29 -36 -33 -79
-33 -62 0 -98 24 -129 85 -41 79 -26 151 37 183 38 19 79 17 116 -7z m-1357
-194 c51 -51 49 -184 -4 -229 -34 -30 -82 -29 -126 0 -102 69 -58 257 61 257
32 0 48 -6 69 -28z m-1858 -322 c24 -13 49 -61 49 -95 0 -64 -62 -135 -117
-135 -28 0 -77 42 -93 80 -30 72 24 160 100 160 23 0 50 -5 61 -10z m-2084
-65 c41 -11 73 -62 73 -113 0 -111 -108 -184 -200 -137 -56 29 -77 112 -44
181 19 41 33 53 81 70 37 13 44 13 90 -1z m-1329 -25 c107 -66 53 -270 -71
-270 -139 0 -175 208 -47 272 46 23 77 23 118 -2z m6043 -213 c43 -28 69 -80
69 -135 0 -35 -6 -49 -30 -74 -29 -29 -34 -30 -95 -26 -50 3 -70 9 -89 27 -51
48 -57 131 -14 186 39 50 104 59 159 22z m-1534 -267 c44 -26 65 -63 65 -110
-1 -50 -15 -76 -55 -100 -66 -41 -154 -13 -177 55 -22 66 6 135 63 160 44 19
67 18 104 -5z m-4220 -226 c99 -47 114 -178 25 -220 -48 -22 -98 -7 -146 46
-56 62 -46 137 24 172 43 22 53 22 97 2z m1303 -348 c313 -29 626 -50 1050
-71 649 -33 1617 -31 2084 5 71 5 131 8 134 6 2 -3 10 -72 17 -153 43 -480
144 -1148 245 -1618 106 -491 262 -1021 465 -1581 l47 -132 -13 -61 -14 -61
-81 107 c-106 139 -250 299 -399 441 -136 130 -191 176 -198 165 -3 -5 10 -46
29 -93 89 -218 262 -696 363 -999 l111 -333 -29 -37 c-21 -28 -121 -175 -126
-188 -1 -3 -495 -45 -683 -58 l-93 -7 5 23 c3 13 8 80 11 149 3 69 15 267 25
440 11 173 31 513 45 755 13 242 26 462 27 488 l3 48 -1392 6 c-828 4 -1393 2
-1393 -3 0 -5 16 -218 35 -474 80 -1072 105 -1412 105 -1440 l0 -29 -82 5
c-46 2 -114 7 -153 10 l-70 6 -52 106 c-60 123 -152 243 -233 303 -91 68 -234
131 -347 154 -38 8 -38 9 -17 61 68 163 150 297 261 421 40 45 69 84 64 88
-19 11 -189 -67 -301 -139 -36 -24 -102 -72 -148 -109 -96 -78 -94 -89 -21
136 70 211 138 378 232 566 96 191 91 181 79 181 -12 0 -210 -149 -319 -241
-45 -38 -84 -69 -86 -69 -2 0 16 66 40 148 249 834 400 1588 497 2482 24 222
56 563 56 603 0 15 5 17 28 13 15 -3 101 -12 192 -20z m6056 -448 c110 -97 71
-263 -64 -276 -95 -9 -162 49 -170 145 -3 29 1 66 8 82 11 28 14 29 64 24 49
-5 54 -3 82 25 16 17 32 31 36 32 4 0 24 -15 44 -32z m-6339 -1 c7 -8 -74
-635 -118 -902 -50 -307 -55 -329 -75 -321 -8 3 -14 0 -13 -7 3 -27 -2 -47
-12 -47 -5 0 -7 5 -4 10 3 6 2 10 -4 10 -5 0 -12 -8 -14 -17 -4 -14 -5 -12 -6
5 0 12 -6 22 -13 22 -6 0 -3 9 7 20 10 11 14 20 9 20 -5 0 -15 -10 -23 -21
-10 -17 -15 -19 -21 -8 -7 11 -10 10 -16 -4 -3 -9 -11 -14 -17 -10 -6 3 -7 1
-3 -6 6 -9 11 -9 22 0 10 8 14 8 14 1 0 -6 6 -10 13 -8 6 1 9 1 4 -1 -4 -3 -5
-9 -2 -14 4 -5 -7 -6 -25 -3 -23 5 -30 3 -30 -10 0 -9 -5 -16 -11 -16 -6 0 -8
-10 -5 -22 3 -13 3 -18 0 -11 -3 7 -12 9 -19 6 -12 -4 -12 -7 0 -19 8 -8 11
-22 8 -30 -4 -11 -8 -12 -13 -4 -4 6 -19 13 -34 14 -25 3 -26 2 -10 -15 10
-11 14 -22 11 -26 -4 -4 -13 2 -21 12 -13 19 -42 12 -30 -7 4 -6 2 -8 -3 -5
-6 4 -13 0 -16 -7 -3 -8 -2 -17 4 -20 5 -2 4 -3 -3 -2 -7 2 -12 9 -11 15 2 6
-2 11 -7 11 -6 0 -10 -5 -10 -12 0 -6 -6 -3 -14 7 -18 25 -10 40 12 23 16 -12
-4 16 -36 50 -7 8 -10 22 -6 31 41 99 27 220 -38 328 -45 76 -156 188 -253
256 -71 49 -82 61 -92 98 -7 25 -8 50 -3 59 5 9 45 51 90 94 106 101 183 139
292 144 l77 4 -6 47 c-14 117 113 260 258 291 35 7 208 5 216 -3z m4001 -2
c34 -8 90 -29 124 -46 130 -65 258 -244 188 -262 -22 -6 -28 -27 -7 -27 6 0
34 7 61 15 99 30 139 11 97 -45 -46 -63 -27 -75 129 -83 219 -11 309 -46 415
-158 83 -88 82 -91 -15 -235 -172 -252 -164 -300 63 -368 67 -19 196 -54 287
-76 210 -52 192 -44 179 -77 -25 -65 -137 -401 -144 -431 -6 -27 -9 -31 -18
-19 -7 8 -20 17 -29 20 -15 5 -16 4 -6 -13 7 -10 17 -16 23 -13 5 3 5 0 -1 -6
-9 -10 -17 -10 -33 -2 -24 14 -27 5 -6 -19 13 -14 12 -16 -6 -17 -10 -1 -17 2
-14 8 4 5 -3 9 -15 9 -12 0 -18 5 -15 10 4 6 11 7 17 4 7 -4 8 -2 4 4 -11 18
-22 14 -34 -13 -11 -25 -12 -25 -30 -7 -10 10 -21 26 -25 35 -3 9 -11 17 -17
17 -6 0 -8 -6 -4 -12 4 -7 3 -9 -1 -5 -5 4 -10 14 -11 22 -2 11 2 12 14 6 10
-5 26 -5 37 0 11 4 14 8 7 8 -8 1 -10 6 -6 14 5 8 3 8 -9 -2 -14 -11 -18 -11
-23 2 -3 9 0 25 6 37 6 12 9 24 6 28 -3 3 -6 0 -6 -6 0 -7 -4 -12 -9 -12 -4 0
-8 12 -7 27 1 18 -6 31 -20 38 -20 10 -20 10 -2 30 21 22 9 32 -19 16 -16 -8
-19 -5 -21 15 -1 13 3 24 9 24 6 0 8 -7 4 -17 -5 -14 -4 -15 6 -6 10 10 9 16
-1 28 -7 8 -9 19 -5 23 4 4 10 2 12 -4 2 -6 10 -20 18 -30 12 -17 12 -14 2 18
-6 20 -15 34 -19 32 -4 -3 -8 1 -9 8 0 7 -5 2 -11 -12 -6 -14 -11 -28 -10 -31
1 -4 -8 -15 -18 -24 -11 -10 -20 -29 -20 -43 0 -21 -3 -23 -26 -18 -23 6 -26
4 -21 -13 3 -12 1 -24 -4 -27 -5 -3 -9 2 -9 12 0 9 -8 23 -17 31 -10 8 -12 11
-4 7 10 -5 11 -1 6 17 -4 13 -8 24 -9 24 0 0 -11 6 -23 13 -27 15 -30 5 -5
-15 12 -10 14 -16 4 -19 -6 -3 -10 -10 -7 -14 3 -5 1 -11 -4 -14 -5 -4 -8 5
-7 18 3 21 -1 24 -31 22 -30 -1 -32 0 -17 11 10 7 23 13 28 13 6 0 5 4 -3 9
-17 11 -23 39 -10 47 5 3 9 2 8 -3 -4 -23 3 -33 26 -33 28 0 35 20 8 21 -15 0
-15 2 2 9 11 5 14 9 7 9 -7 1 -10 6 -6 12 4 8 -1 9 -17 4 -13 -3 -19 -3 -14 2
6 4 9 15 9 23 -1 8 -2 23 -3 33 0 9 -8 17 -17 17 -13 0 -14 -3 -5 -14 23 -27
-12 -74 -38 -53 -12 9 -11 5 2 -16 18 -27 18 -27 -1 -16 -11 7 -19 20 -17 28
1 9 -2 26 -6 38 -7 19 -4 24 16 29 15 4 23 13 22 24 -1 10 -5 16 -9 14 -5 -3
-6 -10 -3 -15 4 -5 1 -9 -4 -9 -6 0 -20 -9 -31 -20 -11 -11 -20 -19 -21 -17
-7 23 -5 39 6 43 17 7 7 44 -12 44 -8 0 -11 5 -8 10 3 6 1 10 -4 10 -6 0 -11
-4 -11 -8 0 -4 -9 -8 -20 -9 -11 -1 -20 3 -20 9 0 5 -6 8 -12 5 -46 -17 -56
-17 -62 -1 -5 14 -4 15 9 4 8 -7 15 -10 15 -7 0 3 3 13 6 22 5 13 2 15 -19 10
-14 -4 -28 -2 -32 5 -5 8 -12 7 -25 -5 -25 -23 -52 -15 -68 18 -7 15 -17 27
-22 27 -15 0 -49 -33 -44 -42 3 -4 0 -8 -5 -8 -6 0 -11 5 -11 11 0 6 -8 8 -17
5 -17 -6 -17 -5 -1 7 20 16 15 24 -29 42 -32 14 -37 22 -34 58 1 9 -3 17 -9
17 -6 0 -9 -4 -6 -9 8 -12 -4 -41 -16 -41 -6 0 -7 7 -4 16 3 8 2 12 -4 9 -6
-3 -10 0 -11 7 0 10 -2 10 -6 1 -2 -7 -9 -13 -14 -13 -6 0 -6 7 -1 18 5 9 7
22 5 29 -2 6 1 15 8 19 9 5 10 2 6 -9 -3 -8 0 -17 7 -20 7 -3 12 5 11 23 0 28
-13 30 -44 6 -12 -9 -13 -8 -6 3 6 11 4 13 -8 8 -9 -3 -16 -3 -15 1 5 16 -24
52 -40 52 -10 0 -23 5 -28 10 -7 7 -11 6 -12 -5 -1 -8 -3 -22 -4 -30 -2 -24
-13 -6 -14 26 -1 16 3 29 8 29 5 0 6 5 3 10 -3 6 -11 10 -16 10 -6 0 -7 -5 -4
-10 3 -6 -1 -13 -9 -16 -9 -3 -16 -14 -16 -23 0 -13 -2 -14 -9 -2 -6 9 -5 25
0 40 8 24 8 25 -6 7 -8 -10 -16 -23 -17 -28 -5 -15 -49 -18 -55 -3 -3 8 -9 15
-14 15 -4 0 -6 -6 -3 -13 2 -7 -2 -21 -10 -32 -14 -18 -15 -18 -16 -2 0 9 5
17 12 17 21 0 -5 18 -33 23 -18 4 -26 1 -26 -9 0 -8 4 -14 9 -14 4 0 8 4 8 10
0 5 8 6 17 3 11 -4 13 -8 5 -11 -7 -2 -9 -9 -5 -15 4 -7 0 -8 -11 -4 -10 4
-22 7 -27 7 -5 0 -9 7 -9 15 0 8 -4 15 -9 15 -5 0 -8 -8 -7 -17 0 -11 -6 -17
-16 -17 -10 1 -18 -3 -18 -8 0 -5 -9 -7 -19 -3 -11 3 -22 1 -26 -4 -3 -7 0 -8
9 -5 9 3 16 2 16 -4 0 -6 -13 -13 -30 -17 -16 -4 -32 -15 -35 -26 -4 -10 -11
-19 -17 -19 -6 0 -6 6 2 15 11 13 10 14 -2 10 -12 -5 -20 21 -41 132 -62 323
-155 964 -149 1020 3 25 285 30 380 8z m2300 -350 c49 -35 44 -123 -9 -150
-41 -22 -65 -19 -101 14 -41 36 -44 88 -8 126 28 29 83 34 118 10z m136 -36
c48 -56 44 -117 -8 -140 -39 -18 -58 -6 -45 28 13 36 4 85 -21 108 -24 22 -17
35 20 35 19 0 36 -10 54 -31z m-8529 -18 c39 -17 95 -72 95 -92 0 -6 -10 -3
-22 5 -49 34 -129 7 -169 -56 -28 -46 -21 -109 17 -150 l29 -31 -40 7 c-66 12
-114 26 -120 36 -4 6 3 22 14 36 37 46 26 109 -27 166 -22 24 -23 29 -11 44
42 51 161 69 234 35z m-254 -80 c57 -58 26 -151 -51 -151 -58 0 -85 27 -85 85
0 39 5 51 28 71 38 32 72 31 108 -5z m336 -34 c47 -42 38 -111 -22 -167 -76
-72 -193 15 -151 113 33 79 117 105 173 54z m529 8 c121 -23 203 -54 245 -92
94 -85 64 -223 -57 -269 -37 -14 -66 -16 -177 -11 -188 8 -262 35 -330 119
-37 46 -47 119 -24 164 49 93 164 123 343 89z m7295 -14 c42 -42 40 -92 -5
-137 -43 -43 -77 -44 -117 -5 -23 23 -29 38 -29 71 0 53 42 100 90 100 22 0
41 -9 61 -29z m928 -25 c19 -15 41 -70 41 -101 0 -38 -50 -85 -89 -85 -47 0
-101 54 -103 102 -1 42 23 85 55 98 25 10 75 3 96 -14z m-1513 -131 c32 -22
57 -81 49 -115 -9 -40 -49 -70 -94 -70 -43 0 -75 20 -96 60 -23 44 -19 78 14
111 34 33 91 40 127 14z m802 -180 c38 -32 46 -65 28 -110 -28 -67 -123 -83
-166 -28 -71 91 50 212 138 138z m-8087 -175 c29 -16 51 -67 44 -100 -25 -115
-175 -99 -175 19 0 72 68 114 131 81z m8419 -15 c36 -19 50 -43 50 -90 0 -43
-23 -81 -61 -101 -42 -21 -75 -17 -110 14 -59 52 -39 152 36 182 30 13 53 12
85 -5z m-854 -33 c48 -38 56 -87 21 -128 -18 -20 -35 -28 -74 -31 -45 -5 -55
-2 -77 20 -58 58 -13 157 71 157 21 0 48 -8 59 -18z m-1526 -26 c0 -2 -9 -6
-20 -9 -11 -3 -18 -1 -14 4 5 9 34 13 34 5z m145 -15 c-3 -6 -11 -11 -16 -11
-5 0 -4 6 3 14 14 16 24 13 13 -3z m-200 -10 c-3 -6 -11 -11 -17 -11 -6 0 -6
6 2 15 14 17 26 13 15 -4z m265 -31 c0 -5 -4 -10 -10 -10 -5 0 -10 5 -10 10 0
6 5 10 10 10 6 0 10 -4 10 -10z m110 -23 c0 -5 -4 -5 -10 -2 -5 3 -10 14 -10
23 0 15 2 15 10 2 5 -8 10 -19 10 -23z m-5434 -52 c41 -17 69 -72 59 -114 -20
-80 -118 -109 -176 -52 -52 52 -34 137 35 167 39 17 40 17 82 -1z m946 -27
c-7 -7 -12 -8 -12 -2 0 6 3 14 7 17 3 4 9 5 12 2 2 -3 -1 -11 -7 -17z m4558
12 c0 -5 -2 -10 -4 -10 -3 0 -8 5 -11 10 -3 6 -1 10 4 10 6 0 11 -4 11 -10z
m-7090 -20 c40 -40 19 -130 -36 -150 -50 -19 -104 33 -104 100 0 58 97 93 140
50z m2139 -61 c58 -43 47 -130 -21 -165 -61 -32 -135 2 -159 73 -9 27 -7 40 8
71 31 64 102 73 172 21z m274 24 c-6 -16 -3 -15 17 2 19 16 18 13 -6 -17 -16
-21 -33 -38 -39 -38 -5 0 -5 4 2 8 7 4 10 16 9 27 -4 23 1 35 14 35 5 0 7 -8
3 -17z m4832 8 c-3 -5 5 -17 17 -25 18 -13 19 -16 6 -16 -10 0 -16 -6 -14 -12
1 -7 1 -10 -1 -6 -2 4 -12 4 -21 1 -11 -3 -13 -2 -5 4 7 5 10 17 9 28 -3 20 1
35 10 35 3 0 3 -4 -1 -9z m2280 -33 c31 -28 44 -73 34 -114 -20 -73 -102 -93
-159 -39 -90 86 31 234 125 153z m-1078 -39 c92 -22 253 -58 357 -80 105 -22
192 -41 194 -43 1 -2 -4 -30 -12 -62 -69 -273 -126 -750 -126 -1054 0 -406 88
-854 249 -1269 l39 -101 -439 0 -439 0 -19 38 c-11 21 -38 61 -60 90 l-40 51
30 107 c88 314 220 565 409 775 60 66 81 99 65 99 -16 0 -254 -113 -326 -155
-44 -27 -131 -86 -191 -133 l-111 -84 8 47 c12 85 73 317 110 423 63 182 157
363 278 540 53 77 56 96 10 67 -50 -33 -347 -337 -428 -438 -43 -54 -79 -96
-81 -94 -4 4 68 356 105 512 44 182 110 409 180 617 32 97 57 179 53 182 -10
11 17 6 185 -35z m-1069 6 c-3 -3 -9 2 -12 12 -6 14 -5 15 5 6 7 -7 10 -15 7
-18z m152 -14 c0 -6 -4 -13 -10 -16 -5 -3 -10 -2 -10 4 0 5 -8 12 -17 14 -11
3 -7 5 10 6 15 0 27 -3 27 -8z m-80 -27 c0 -2 -8 0 -19 5 -10 6 -22 7 -26 3
-5 -4 -5 -1 -1 6 5 9 12 9 27 2 10 -6 19 -13 19 -16z m54 0 c3 -8 2 -12 -4 -9
-6 3 -10 10 -10 16 0 14 7 11 14 -7z m-6499 -157 c75 -69 -1 -186 -94 -147
-16 6 -34 22 -41 35 -16 29 -7 90 16 116 25 27 88 25 119 -4z m6623 -62 c-3
-3 -9 2 -12 12 -6 14 -5 15 5 6 7 -7 10 -15 7 -18z m191 -8 c11 -14 5 -27 -11
-27 -5 0 -6 5 -2 11 3 6 0 15 -7 20 -8 5 -9 9 -3 9 6 0 17 -6 23 -13z m-105
-35 c3 -9 9 -24 12 -32 5 -11 1 -9 -14 4 -12 10 -19 23 -16 27 3 5 0 9 -5 9
-6 0 -11 4 -11 10 0 15 27 1 34 -18z m160 2 c3 -8 2 -12 -4 -9 -6 3 -10 10
-10 16 0 14 7 11 14 -7z m-199 -4 c3 -5 1 -10 -4 -10 -6 0 -11 5 -11 10 0 6 2
10 4 10 3 0 8 -4 11 -10z m205 -27 c0 -3 -7 -3 -15 1 -8 3 -15 1 -15 -3 0 -5
5 -11 12 -13 6 -2 12 -11 14 -20 1 -11 -3 -15 -12 -11 -8 3 -12 8 -10 11 3 3
1 11 -5 18 -14 17 -3 35 16 27 8 -3 15 -7 15 -10z m-110 -7 c0 -2 -8 -10 -17
-17 -16 -13 -17 -12 -4 4 13 16 21 21 21 13z m8 -98 c-97 -274 -158 -635 -158
-936 l0 -113 -106 3 -107 3 6 -175 c5 -147 29 -361 62 -566 l7 -41 -64 -7
c-35 -3 -94 -15 -133 -26 -38 -11 -70 -18 -72 -16 -2 2 -18 72 -36 157 l-32
154 -57 -3 c-52 -3 -58 -5 -59 -25 -1 -12 -7 14 -14 58 -7 44 -11 82 -9 84 2
2 4 -1 4 -7 0 -7 8 -12 18 -12 13 0 17 9 19 43 2 60 57 302 99 437 109 350
249 604 482 880 46 54 173 190 178 190 1 0 -12 -37 -28 -82z m-7743 8 c43 -18
59 -48 52 -103 -8 -73 -68 -119 -133 -102 -94 26 -95 163 -1 204 40 18 41 18
82 1z m1252 -118 c53 -157 145 -404 217 -583 31 -76 56 -142 56 -146 0 -3 -23
-41 -51 -83 -91 -139 -161 -294 -209 -466 -12 -41 -23 -81 -25 -88 -3 -6 -43
63 -90 154 -144 280 -400 684 -432 684 -11 0 -13 -5 -8 -17 91 -219 168 -467
210 -678 23 -119 61 -402 67 -503 3 -50 -4 -67 -15 -38 -11 28 -138 108 -219
138 -73 27 -99 32 -208 35 -101 4 -139 1 -198 -15 -51 -13 -75 -15 -78 -8 -2
6 -8 184 -13 396 -8 370 1 1003 17 1114 l7 49 155 23 c276 40 556 94 715 138
28 7 52 14 55 15 3 0 24 -54 47 -121z m7767 -104 c37 -19 87 -48 110 -64 58
-39 146 -136 189 -207 77 -127 136 -328 123 -421 -8 -57 -46 -123 -91 -158
-19 -14 -35 -30 -35 -34 0 -5 20 -20 45 -35 129 -75 174 -167 87 -177 -42 -5
-39 -37 8 -90 22 -25 40 -55 40 -67 0 -23 -27 -41 -64 -41 -14 0 -28 -5 -31
-10 -4 -6 -10 -8 -14 -6 -4 3 -4 -16 0 -42 19 -114 3 -177 -58 -233 -46 -43
-242 -169 -262 -169 -7 0 -38 87 -46 131 -2 10 -7 24 -11 31 -4 6 -3 8 3 5 5
-3 10 0 10 8 0 8 -4 12 -8 10 -14 -10 -30 51 -20 77 7 19 7 28 -2 31 -9 4 -9
7 0 17 9 10 9 18 1 33 -9 18 -7 19 15 15 18 -4 24 -1 20 8 -3 7 -8 13 -11 12
-21 -2 -31 4 -26 17 4 8 2 15 -4 15 -18 0 -20 -24 -6 -57 11 -28 11 -33 -1
-33 -14 0 -31 37 -22 47 3 2 -1 20 -9 40 -14 32 -14 37 1 53 10 11 14 24 9 31
-4 8 -3 10 4 5 7 -4 12 -5 12 -2 0 3 -10 10 -21 17 -17 9 -20 8 -13 -3 6 -10
4 -10 -9 1 -11 8 -15 21 -12 32 4 11 2 19 -4 19 -5 0 -8 9 -6 20 2 11 0 20 -5
20 -5 0 -9 8 -9 18 1 9 -3 35 -7 56 -4 24 -3 37 2 33 6 -3 11 4 11 16 2 15 0
18 -6 8 -6 -9 -10 -5 -16 16 -11 41 -14 184 -4 177 5 -3 9 -1 9 4 0 6 -7 12
-15 16 -19 7 -19 25 0 33 9 3 22 -3 31 -13 14 -18 15 -18 4 3 -7 16 -7 24 2
30 19 12 19 43 1 36 -12 -5 -14 -1 -9 18 6 20 5 21 -4 6 -6 -9 -17 -15 -23
-11 -7 3 -3 -2 7 -10 11 -9 16 -16 10 -16 -5 0 -2 -5 6 -10 12 -7 10 -9 -7 -8
-14 2 -19 7 -15 17 3 9 1 12 -6 7 -9 -5 -11 52 -8 236 2 134 6 252 9 263 2 11
8 57 12 103 4 45 11 82 15 82 5 0 6 9 3 20 -3 11 -2 31 1 45 8 31 17 29 120
-21z m-711 -246 c-144 -226 -243 -470 -312 -773 -32 -142 -37 -195 -18 -195
13 0 11 -13 -15 -72 -17 -40 -36 -91 -42 -113 -6 -22 -27 -84 -46 -138 -34
-96 -36 -98 -65 -95 -21 2 -31 10 -36 28 -7 24 -7 25 -8 2 -1 -13 -5 -21 -9
-18 -5 3 -49 6 -99 7 l-91 2 15 51 c24 83 62 194 105 304 40 104 40 104 34
205 l-7 102 68 108 c101 159 206 296 345 447 100 109 212 218 225 220 2 0 -18
-33 -44 -72z m-3939 -148 l-81 -80 -121 0 c-112 0 -122 2 -132 21 -13 24 -2
64 30 109 l21 30 182 0 182 0 -81 -80z m666 5 l-74 -75 -170 0 -170 0 74 75
74 75 170 0 170 0 -74 -75z m-4810 25 c0 -5 -5 -10 -11 -10 -5 0 -7 5 -4 10 3
6 8 10 11 10 2 0 4 -4 4 -10z m-60 -4 c0 -3 -5 -17 -10 -32 -8 -21 -8 -29 2
-36 17 -10 37 -11 23 0 -5 4 -11 17 -13 30 -3 21 -2 22 17 10 11 -7 17 -16 12
-21 -10 -10 -2 -55 12 -64 6 -4 8 0 4 10 -3 10 -2 17 3 17 5 0 8 -77 8 -171 0
-123 -3 -168 -11 -160 -14 14 -30 14 -22 1 3 -5 1 -10 -6 -10 -8 0 -8 -4 1
-15 14 -17 0 -21 -16 -5 -7 7 -16 4 -29 -10 -15 -16 -16 -23 -6 -33 10 -9 11
-9 6 4 -3 9 1 22 10 29 13 11 15 10 12 -6 -6 -31 -18 -54 -29 -54 -5 0 -7 3
-5 8 3 4 -2 14 -11 21 -14 13 -15 12 -9 -8 4 -18 3 -20 -8 -11 -8 7 -19 9 -25
5 -6 -4 -10 -3 -9 2 3 17 -1 33 -9 33 -5 0 -8 -10 -7 -22 2 -25 -10 -40 -39
-51 -17 -7 -18 -9 -3 -20 13 -9 14 -16 6 -27 -9 -13 -10 -12 -5 2 3 11 -2 19
-13 23 -13 4 -17 12 -14 25 3 13 -1 22 -11 26 -23 9 -32 -2 -16 -21 10 -12 10
-15 -4 -15 -10 0 -14 5 -11 10 3 6 -1 10 -10 10 -10 0 -15 -7 -13 -17 2 -13
-3 -17 -16 -15 -17 3 -18 2 -7 -12 7 -9 16 -14 20 -12 4 3 13 1 21 -4 13 -8
13 -11 1 -22 -9 -8 -11 -9 -7 -1 3 6 2 14 -4 18 -5 3 -10 -2 -11 -12 0 -15 -2
-14 -11 5 -7 15 -20 22 -37 21 -24 0 -25 -1 -5 -9 27 -11 37 -37 18 -44 -18
-7 -18 -23 1 -29 11 -3 10 -4 -2 -3 -10 1 -17 9 -17 19 1 9 -4 17 -12 17 -8 0
-14 7 -14 15 0 8 -5 15 -11 15 -7 0 -5 -9 5 -24 15 -23 15 -25 -4 -21 -14 3
-17 -1 -13 -12 5 -12 3 -14 -7 -8 -8 5 -11 4 -7 -2 4 -6 0 -17 -9 -24 -10 -8
-13 -21 -9 -38 3 -14 2 -21 -2 -15 -12 16 -55 25 -50 11 3 -7 10 -11 16 -9 7
1 10 -2 6 -8 -3 -6 -11 -8 -16 -5 -5 4 -9 1 -9 -5 0 -6 -5 -8 -11 -4 -6 3 -15
1 -19 -6 -6 -9 -10 -7 -15 9 -3 11 -10 21 -14 21 -4 0 -18 19 -31 42 -32 57
-39 177 -15 268 24 92 81 196 142 257 53 52 206 138 226 126 5 -3 12 -1 16 4
9 13 161 50 161 39z m1575 -127 c-43 -180 -65 -337 -75 -537 -8 -152 -16 -218
-37 -299 -15 -59 -29 -99 -33 -92 -5 6 -28 11 -53 11 -42 -1 -46 1 -49 26 -4
34 -21 -55 -52 -271 -21 -142 -25 -160 -47 -175 -46 -32 -138 -125 -171 -173
-18 -27 -36 -49 -40 -49 -18 0 -18 94 1 210 29 173 32 199 22 175 -4 -11 -14
-20 -22 -20 -8 0 -17 -15 -21 -35 -4 -19 -4 -1 -2 40 7 96 33 336 41 375 l6
30 14 -34 c8 -19 18 -30 22 -25 5 5 20 59 35 119 55 221 146 411 293 606 77
103 184 229 191 224 1 -1 -9 -49 -23 -106z m676 -200 l-94 -190 -83 3 -84 3
-52 -130 c-28 -71 -88 -242 -134 -380 l-83 -250 -58 -13 c-109 -23 -150 -28
-169 -22 -10 4 -22 2 -26 -4 -14 -21 -8 10 27 140 63 230 105 354 119 354 8 0
16 10 20 23 8 33 256 288 394 406 120 102 303 249 312 250 3 1 -37 -85 -89
-190z m-1494 -63 c40 -66 73 -124 73 -128 0 -4 -22 -8 -48 -8 l-48 0 -33 103
c-19 56 -47 136 -63 177 -16 41 -32 82 -35 90 -8 21 68 -95 154 -234z m3640
-94 l-22 -24 -6 59 c-4 32 -7 103 -8 157 -1 90 1 102 22 124 l22 24 7 -158 c7
-155 7 -159 -15 -182z m1961 148 l162 -160 0 -53 1 -52 15 28 16 29 23 -22
c13 -13 43 -47 66 -76 40 -50 43 -56 40 -111 -5 -134 -68 -515 -87 -532 -4 -3
-4 4 -1 17 3 13 1 22 -6 22 -7 0 -36 71 -66 158 -54 158 -240 661 -305 825
-19 48 -31 87 -27 87 4 0 80 -72 169 -160z m-6438 -195 c-7 -8 -17 -15 -23
-15 -6 0 -2 7 9 15 25 19 30 19 14 0z m-120 -35 c0 -5 -5 -10 -11 -10 -5 0 -7
5 -4 10 3 6 8 10 11 10 2 0 4 -4 4 -10z m30 -21 c0 -5 -4 -9 -8 -9 -5 0 -9 7
-9 15 0 8 4 12 9 9 4 -3 8 -9 8 -15z m1738 -131 l31 -68 -32 -39 c-18 -22 -35
-40 -39 -40 -5 -1 -8 52 -8 116 0 70 4 113 9 108 5 -6 23 -40 39 -77z m-1898
32 c0 -5 -2 -10 -4 -10 -3 0 -8 5 -11 10 -3 6 -1 10 4 10 6 0 11 -4 11 -10z
m-266 -134 c-3 -8 -13 -12 -27 -8 -20 5 -20 6 -1 13 29 11 34 10 28 -5z m67 1
c-6 -8 -7 -18 -3 -23 4 -4 -1 -2 -10 5 -19 14 -25 26 -9 16 5 -3 12 -1 16 5 3
5 9 10 12 10 3 0 0 -6 -6 -13z m-133 -24 c-8 -10 -14 -11 -16 -4 -2 6 -9 8
-14 5 -7 -4 -8 -2 -4 4 4 6 14 8 23 5 12 -5 14 -3 8 7 -5 9 -4 11 4 6 9 -6 9
-11 -1 -23z m-52 -2 c-4 -5 -1 -11 6 -13 8 -3 8 -9 1 -23 -10 -17 -11 -17 -17
3 l-7 21 -25 -21 c-13 -12 -24 -26 -24 -31 0 -6 9 -2 20 8 18 16 20 16 15 2
-8 -18 -40 -32 -55 -22 -10 6 9 45 22 45 5 0 17 9 28 20 20 20 46 28 36 11z
m2951 -117 c-23 -53 -43 -91 -45 -85 -2 6 -31 11 -70 11 l-67 1 40 36 c35 30
173 133 181 133 1 0 -16 -43 -39 -96z m-3037 1 c-7 -8 -17 -15 -23 -15 -6 0
-2 7 9 15 25 19 30 19 14 0z m-115 -295 c-27 -12 -43 -12 -25 0 8 5 22 9 30 9
10 0 8 -3 -5 -9z m4255 -357 c5 -76 12 -164 15 -195 l6 -58 -75 0 -74 0 -6 38
c-3 20 -8 78 -11 127 l-6 90 67 73 c36 40 68 71 71 68 2 -2 8 -66 13 -143z"/>
<path d="M4628 10084 c-15 -8 -43 -35 -63 -61 -48 -64 -48 -109 0 -157 54 -51
82 -60 151 -46 42 9 67 22 97 49 35 33 40 43 41 85 1 44 -2 50 -51 97 -47 45
-55 49 -100 49 -26 -1 -60 -7 -75 -16z m144 -23 c60 -54 38 -144 -45 -182 -51
-22 -125 -25 -154 -4 -32 23 -38 66 -15 112 52 100 148 133 214 74z"/>
<path d="M4960 6281 c-181 -58 -298 -179 -385 -397 -34 -84 -71 -248 -86 -377
-21 -181 4 -784 34 -813 3 -3 264 -8 580 -11 557 -6 575 -5 585 13 16 30 40
214 53 406 36 527 -93 958 -334 1118 -86 58 -168 80 -291 79 -68 0 -119 -6
-156 -18z m337 -117 c65 -31 160 -117 202 -183 57 -89 120 -277 136 -406 l7
-55 -241 0 -241 0 0 344 0 344 41 -9 c23 -6 66 -21 96 -35z m-257 -86 c0 -68
3 -221 7 -340 l6 -218 -233 0 -233 0 7 59 c25 219 127 428 259 530 48 36 153
90 180 91 4 0 7 -55 7 -122z m649 -438 c6 -36 15 -103 19 -149 7 -71 6 -87 -9
-104 -16 -20 -17 -17 -24 69 -4 49 -13 125 -20 169 -11 59 -11 83 -3 93 16 18
22 4 37 -78z m-41 -187 l3 -33 -183 0 -183 1 38 35 37 35 143 -3 142 -3 3 -32z
m-588 -358 l0 -295 -229 0 -228 0 -7 48 c-14 108 -26 295 -26 415 l0 127 245
0 245 0 0 -295z m590 151 c0 -136 -15 -383 -26 -435 l-5 -24 -222 7 c-122 4
-222 8 -223 9 -1 1 -4 134 -8 295 l-7 292 245 0 246 0 0 -144z m-514 -433 c-3
-7 -15 -13 -26 -13 -19 0 -20 6 -20 222 0 216 1 222 23 246 l22 24 3 -233 c1
-129 0 -239 -2 -246z m564 109 l-13 -116 -45 -48 -45 -48 -115 0 -116 0 30 31
29 30 107 -2 c59 -1 110 -1 112 2 3 2 10 60 16 129 8 90 16 130 28 143 24 27
26 10 12 -121z m-635 -182 l-29 -30 -233 0 c-128 0 -233 3 -233 7 0 4 10 17
22 30 21 23 24 23 262 23 l240 0 -29 -30z"/>
<path d="M6784 5885 c-290 -63 -475 -337 -551 -817 -25 -161 -25 -659 0 -873
10 -82 20 -156 22 -162 6 -19 1268 -19 1283 0 26 32 62 411 62 653 0 384 -49
637 -168 869 -140 271 -374 390 -648 330z m337 -156 c120 -64 214 -182 280
-353 27 -70 72 -258 83 -347 l5 -46 -263 -1 -263 0 -5 396 c-3 219 -4 400 -2
404 7 11 100 -18 165 -53z m-287 -356 l6 -393 -224 0 c-123 0 -238 3 -256 6
l-32 7 6 51 c22 164 80 357 137 452 43 72 116 153 180 200 55 40 160 87 170
76 4 -4 9 -184 13 -399z m676 -110 c22 -91 21 -128 -1 -121 -6 2 -22 48 -36
102 -20 78 -22 100 -12 112 18 21 24 10 49 -93z m-398 -313 c175 0 177 -1 104
-53 -27 -19 -48 -23 -156 -27 l-125 -5 -3 -105 c-2 -79 -7 -109 -19 -122 -9
-10 -20 -18 -25 -18 -4 0 -8 56 -8 124 0 129 -6 145 -45 130 -27 -11 -16 4 37
46 28 22 58 38 66 35 7 -3 86 -5 174 -5z m385 -316 c-4 -111 -12 -266 -18
-343 l-12 -141 -247 0 -247 0 -6 158 c-4 86 -7 241 -7 344 l0 188 263 2 c144
2 266 1 271 -1 5 -2 6 -89 3 -207z m-647 -139 l0 -345 -250 0 -250 0 -4 23
c-21 94 -47 615 -33 651 6 14 36 16 272 16 l265 0 0 -345z m720 212 c0 -116
-1 -125 -23 -145 l-23 -21 4 132 c4 123 11 157 33 157 5 0 9 -55 9 -123z
m-1280 -294 c1 -56 31 -277 39 -287 8 -9 3 -20 -18 -40 l-29 -27 -11 78 c-20
145 -25 251 -11 268 13 16 30 20 30 8z m650 -173 l0 -90 -30 0 -30 0 0 67 c0
55 4 71 22 90 12 13 25 23 30 23 4 0 8 -40 8 -90z m90 -125 c0 -3 -15 -19 -32
-35 l-33 -29 -174 -1 -175 0 34 35 34 35 173 0 c95 0 173 -2 173 -5z"/>
<path d="M3840 4777 c0 -8 7 -14 15 -14 11 0 12 4 4 14 -6 7 -13 13 -15 13 -2
0 -4 -6 -4 -13z"/>
<path d="M8479 5093 c-13 -16 -12 -17 4 -4 16 13 21 21 13 21 -2 0 -10 -8 -17
-17z"/>
<path d="M8526 5037 c3 -10 9 -15 12 -12 3 3 0 11 -7 18 -10 9 -11 8 -5 -6z"/>
<path d="M8618 5033 c7 -3 16 -2 19 1 4 3 -2 6 -13 5 -11 0 -14 -3 -6 -6z"/>
<path d="M8580 5010 c-9 -6 -10 -10 -3 -10 6 0 15 5 18 10 8 12 4 12 -15 0z"/>
<path d="M8736 4963 c-6 -14 -5 -15 5 -6 7 7 10 15 7 18 -3 3 -9 -2 -12 -12z"/>
<path d="M8670 4940 c0 -5 5 -10 11 -10 5 0 7 5 4 10 -3 6 -8 10 -11 10 -2 0
-4 -4 -4 -10z"/>
<path d="M8690 4887 c0 -7 9 -18 21 -25 13 -8 19 -19 15 -30 -5 -13 -2 -12 9
3 14 18 14 21 -2 32 -9 7 -13 13 -7 13 10 0 -17 20 -28 20 -5 0 -8 -6 -8 -13z"/>
<path d="M8780 4881 c0 -7 -5 -9 -12 -5 -7 5 -8 3 -3 -5 5 -9 10 -10 18 -2 6
6 8 14 4 18 -4 3 -7 1 -7 -6z"/>
<path d="M8844 4815 c-10 -8 -14 -15 -8 -15 6 0 17 7 24 15 16 19 9 19 -16 0z"/>
<path d="M8961 4794 c0 -11 3 -14 6 -6 3 7 2 16 -1 19 -3 4 -6 -2 -5 -13z"/>
<path d="M9196 4691 c3 -13 2 -21 -3 -18 -5 3 -9 -3 -9 -13 0 -9 6 -17 13 -16
17 3 29 16 14 16 -9 0 -9 5 0 21 6 13 7 19 1 15 -6 -3 -13 0 -16 6 -3 7 -3 2
0 -11z"/>
<path d="M9335 4680 c-3 -5 -3 -10 2 -11 4 0 -1 -5 -12 -10 -17 -8 -15 -8 7
-4 23 4 26 2 21 -12 -5 -15 -4 -16 8 -5 12 11 11 15 -3 26 -10 7 -15 16 -11
19 3 4 4 7 0 7 -3 0 -9 -4 -12 -10z"/>
<path d="M9107 4673 c-10 -9 -9 -23 1 -23 5 0 9 7 9 15 0 17 -1 18 -10 8z"/>
<path d="M9126 4643 c-6 -14 -5 -15 5 -6 7 7 10 15 7 18 -3 3 -9 -2 -12 -12z"/>
<path d="M9236 4641 c-3 -5 0 -11 7 -14 8 -3 14 1 14 9 0 16 -13 19 -21 5z"/>
<path d="M9285 4622 c-2 -7 -1 -11 4 -8 4 3 17 -1 27 -9 24 -19 34 -19 34 0 0
9 -6 12 -17 8 -12 -5 -15 -2 -11 8 4 10 -1 15 -13 15 -10 0 -21 -6 -24 -14z"/>
<path d="M9228 4603 c7 -3 16 -2 19 1 4 3 -2 6 -13 5 -11 0 -14 -3 -6 -6z"/>
<path d="M9260 4592 c-8 -4 -16 -16 -18 -27 -3 -20 -2 -20 13 -1 8 11 21 23
27 28 16 9 -1 9 -22 0z"/>
<path d="M9301 4581 c-10 -7 -10 -10 -1 -16 6 -4 16 -3 22 3 13 13 -4 23 -21
13z"/>
<path d="M9284 4551 c3 -5 -3 -11 -14 -14 -11 -3 -20 -13 -20 -23 0 -9 3 -14
7 -11 3 4 13 1 21 -6 9 -6 13 -7 9 -1 -3 6 2 20 13 32 16 17 17 21 4 26 -21 8
-26 8 -20 -3z m3 -27 c-3 -3 -12 -4 -19 -1 -8 3 -5 6 6 6 11 1 17 -2 13 -5z"/>
<path d="M9501 4394 c0 -11 3 -14 6 -6 3 7 2 16 -1 19 -3 4 -6 -2 -5 -13z"/>
<path d="M9601 4384 c0 -11 3 -14 6 -6 3 7 2 16 -1 19 -3 4 -6 -2 -5 -13z"/>
<path d="M9472 4334 c-7 -8 -8 -14 -3 -14 10 0 25 19 20 25 -2 1 -10 -3 -17
-11z"/>
<path d="M9455 4300 c3 -5 8 -10 11 -10 2 0 4 5 4 10 0 6 -5 10 -11 10 -5 0
-7 -4 -4 -10z"/>
<path d="M2630 5583 c-39 -27 -49 -45 -50 -89 0 -48 19 -77 79 -118 32 -23 47
-27 73 -22 88 17 117 112 57 181 -56 64 -112 80 -159 48z m118 -29 c34 -39 30
-95 -9 -128 -39 -33 -82 -34 -114 -2 -50 50 -42 109 17 146 40 25 74 19 106
-16z"/>
<path d="M10443 3453 c-7 -3 -13 -11 -13 -18 0 -8 6 -17 13 -21 6 -4 9 -4 5 1
-4 4 -3 14 4 22 13 15 9 22 -9 16z"/>
<path d="M10430 3310 c0 -5 5 -10 11 -10 5 0 7 5 4 10 -3 6 -8 10 -11 10 -2 0
-4 -4 -4 -10z"/>
<path d="M10464 3271 c0 -11 5 -17 13 -14 10 4 11 9 2 19 -15 18 -15 18 -15
-5z"/>
<path d="M10635 2880 c-3 -6 1 -7 9 -4 18 7 21 14 7 14 -6 0 -13 -4 -16 -10z"/>
<path d="M10770 2860 c0 -5 7 -10 16 -10 9 0 12 -5 8 -12 -4 -7 -3 -8 4 -4 16
10 15 14 -8 26 -14 7 -20 7 -20 0z"/>
<path d="M10585 2850 c-3 -5 1 -10 10 -10 9 0 13 5 10 10 -3 6 -8 10 -10 10
-2 0 -7 -4 -10 -10z"/>
<path d="M10550 2841 c0 -5 7 -11 14 -14 10 -4 13 -1 9 9 -6 15 -23 19 -23 5z"/>
<path d="M10726 2838 c3 -4 9 -8 15 -8 5 0 9 4 9 8 0 5 -7 9 -15 9 -8 0 -12
-4 -9 -9z"/>
<path d="M11016 2838 c3 -5 10 -6 15 -3 13 9 11 12 -6 12 -8 0 -12 -4 -9 -9z"/>
<path d="M10530 2809 c0 -5 4 -8 10 -4 5 3 18 -3 29 -14 17 -17 21 -18 32 -5
10 12 9 17 -1 27 -9 9 -11 9 -6 0 10 -18 -10 -25 -24 -8 -14 17 -40 20 -40 4z"/>
<path d="M10690 2800 c-9 -6 -10 -10 -3 -10 6 0 15 5 18 10 8 12 4 12 -15 0z"/>
<path d="M10770 2801 c0 -6 4 -13 10 -16 6 -3 7 1 4 9 -7 18 -14 21 -14 7z"/>
<path d="M10523 2775 c0 -12 3 -12 16 -3 9 7 18 14 20 15 2 2 -5 3 -16 3 -11
0 -20 -7 -20 -15z"/>
<path d="M10619 2773 c-1 -5 -1 -12 0 -17 1 -5 -5 -6 -13 -3 -10 4 -13 1 -9
-9 5 -13 9 -11 29 7 13 12 28 18 35 14 8 -5 10 -4 5 3 -8 13 -45 16 -47 5z"/>
<path d="M10719 2763 c-13 -16 -12 -17 4 -4 16 13 21 21 13 21 -2 0 -10 -8
-17 -17z"/>
<path d="M10754 2758 c3 -15 26 -23 26 -8 0 6 -4 9 -9 6 -5 -4 -12 -1 -14 4
-3 6 -4 5 -3 -2z"/>
<path d="M10683 2743 c4 -6 3 -14 -3 -18 -6 -4 -8 -11 -5 -16 4 -5 -1 -9 -10
-9 -12 0 -15 6 -10 23 5 18 4 19 -4 6 -8 -12 -7 -25 3 -44 14 -26 14 -26 21
-6 4 12 14 29 23 39 9 9 15 16 13 15 -2 -2 -11 3 -19 10 -11 8 -14 8 -9 0z"/>
<path d="M10724 2718 c-3 -4 4 -8 15 -8 12 0 21 4 21 8 0 5 -7 9 -15 9 -9 0
-18 -4 -21 -9z"/>
<path d="M10606 2685 c-3 -9 -10 -13 -16 -10 -5 3 -10 1 -10 -4 0 -6 4 -11 9
-11 12 0 35 29 29 36 -3 3 -8 -2 -12 -11z"/>
<path d="M10635 2670 c-3 -5 -1 -10 4 -10 6 0 11 5 11 10 0 6 -2 10 -4 10 -3
0 -8 -4 -11 -10z"/>
<path d="M10680 2674 c0 -4 8 -13 18 -21 9 -8 12 -12 6 -9 -7 3 -14 -4 -17
-15 -5 -19 -4 -20 12 -5 10 9 21 13 25 9 4 -4 4 1 0 12 -7 20 -7 20 14 1 12
-10 19 -23 16 -27 -3 -5 0 -9 5 -9 18 0 12 15 -14 40 -14 13 -25 20 -25 15 0
-5 -5 -4 -12 3 -13 13 -28 16 -28 6z"/>
<path d="M10801 2664 c0 -11 3 -14 6 -6 3 7 2 16 -1 19 -3 4 -6 -2 -5 -13z"/>
<path d="M10755 2660 c3 -5 8 -10 11 -10 2 0 4 5 4 10 0 6 -5 10 -11 10 -5 0
-7 -4 -4 -10z"/>
<path d="M10615 2626 c0 -13 3 -22 8 -19 4 2 7 13 7 24 0 10 -3 19 -7 19 -5 0
-8 -11 -8 -24z"/>
<path d="M10640 2637 c0 -16 24 -17 37 -1 4 5 4 6 -1 2 -5 -4 -15 -3 -23 3
-10 9 -13 8 -13 -4z"/>
<path d="M10786 2623 c-6 -14 -5 -15 5 -6 7 7 10 15 7 18 -3 3 -9 -2 -12 -12z"/>
<path d="M10574 2595 c-10 -8 -14 -14 -9 -15 15 0 40 18 34 24 -3 3 -14 -1
-25 -9z"/>
<path d="M10654 2578 l-19 -23 23 19 c21 18 27 26 19 26 -2 0 -12 -10 -23 -22z"/>
<path d="M10620 2576 c0 -8 -6 -17 -12 -19 -10 -4 -10 -6 -1 -6 7 -1 17 8 23
19 7 14 7 20 0 20 -5 0 -10 -6 -10 -14z"/>
<path d="M10681 2554 c0 -11 3 -14 6 -6 3 7 2 16 -1 19 -3 4 -6 -2 -5 -13z"/>
<path d="M1670 3695 c-7 -9 -8 -15 -2 -15 5 0 12 7 16 15 3 8 4 15 2 15 -2 0
-9 -7 -16 -15z"/>
<path d="M1726 3338 c3 -5 10 -6 15 -3 13 9 11 12 -6 12 -8 0 -12 -4 -9 -9z"/>
<path d="M1526 3305 c4 -8 8 -15 10 -15 2 0 4 7 4 15 0 8 -4 15 -10 15 -5 0
-7 -7 -4 -15z"/>
<path d="M1640 3260 c0 -5 5 -10 11 -10 5 0 7 5 4 10 -3 6 -8 10 -11 10 -2 0
-4 -4 -4 -10z"/>
<path d="M1482 3230 c-7 -12 -16 -19 -20 -16 -5 3 -14 0 -22 -6 -12 -8 -12 -9
3 -4 9 3 17 1 17 -4 0 -6 9 -1 21 11 11 11 19 25 17 30 -2 5 -9 0 -16 -11z"/>
<path d="M1550 3230 c14 -26 36 -26 43 1 3 13 1 19 -6 16 -7 -3 -11 -11 -9
-18 1 -9 -3 -8 -11 4 -19 23 -30 22 -17 -3z"/>
<path d="M1280 3110 c8 -5 20 -10 25 -10 6 0 3 5 -5 10 -8 5 -19 10 -25 10 -5
0 -3 -5 5 -10z"/>
<path d="M1355 3109 c-11 -16 -1 -19 13 -3 7 8 8 14 3 14 -5 0 -13 -5 -16 -11z"/>
<path d="M1260 3055 c5 -7 7 -15 3 -19 -4 -4 1 -4 12 0 11 5 14 9 7 12 -7 2
-10 7 -8 11 3 4 -1 8 -9 8 -10 0 -12 -4 -5 -12z"/>
<path d="M1310 3030 c0 -5 5 -10 11 -10 5 0 7 5 4 10 -3 6 -8 10 -11 10 -2 0
-4 -4 -4 -10z"/>
<path d="M7115 10891 c22 -4 56 -10 75 -14 34 -6 34 -6 -5 8 -22 7 -56 13 -75
13 l-35 -1 40 -6z"/>
<path d="M3913 10139 c-37 -23 -77 -83 -70 -102 3 -7 6 -5 6 5 1 25 60 89 96
104 16 7 23 13 15 13 -8 1 -29 -9 -47 -20z"/>
<path d="M2213 8440 c-17 -10 -37 -29 -43 -42 -11 -20 -9 -20 12 4 12 14 37
33 53 42 17 8 26 15 20 16 -5 0 -24 -9 -42 -20z"/>
<path d="M2153 8315 c0 -33 2 -45 4 -27 2 18 2 45 0 60 -2 15 -4 0 -4 -33z"/>
<path d="M10430 6336 c0 -2 7 -7 16 -10 8 -3 12 -2 9 4 -6 10 -25 14 -25 6z"/>
<path d="M1158 5298 c-13 -13 -17 -18 -8 -12 8 6 24 16 35 22 11 6 15 12 8 12
-7 0 -22 -10 -35 -22z"/>
<path d="M1111 5224 c0 -11 3 -14 6 -6 3 7 2 16 -1 19 -3 4 -6 -2 -5 -13z"/>
<path d="M780 4669 c-6 -11 -10 -25 -8 -30 2 -5 8 4 15 21 13 34 9 40 -7 9z"/>
</g>
</svg>
